<svg width="67" height="51" viewBox="0 0 67 51" fill="none" xmlns="http://www.w3.org/2000/svg">
<path fill-rule="evenodd" clip-rule="evenodd" d="M16.9828 5.71338C17.4337 5.41235 17.6442 5.23441 18.0382 4.84148L18.6845 4.19726C19.1165 3.76631 19.572 3.34159 20.0623 2.97678C20.3334 2.775 20.5675 2.62861 20.8393 2.44559C21.4802 2.01405 22.4074 1.6681 23.156 1.50832C24.039 1.3197 25.1614 1.16144 26.0227 1.40807C26.1038 1.43128 26.2018 1.45901 26.2712 1.48662C26.3078 1.50116 26.3408 1.51525 26.3801 1.53267C26.6379 1.64709 26.8689 1.80053 27.0678 1.99809C27.7405 2.66586 28.0221 4.04756 28.3237 4.95522C28.376 5.11289 28.4365 5.27023 28.5009 5.43143C28.5565 5.57034 28.6696 5.75277 28.7006 5.88521C29.0217 5.88521 29.1648 5.85862 29.4209 5.79584C29.6469 5.74039 29.8203 5.65288 30.0103 5.55873C30.7782 5.17801 31.9083 4.05522 32.7732 3.58886C33.3063 3.30128 33.7268 3.06654 34.3118 2.8721C35.3273 2.53447 36.3764 2.35246 37.4544 2.29443C38.0786 2.26077 38.9839 2.26078 39.5938 2.32623C39.8617 2.35499 40.1266 2.35089 40.3939 2.38755C40.5242 2.40548 40.6576 2.42088 40.7808 2.43139C41.0428 2.45395 41.2897 2.48995 41.5459 2.5275C42.0476 2.60119 42.5407 2.65612 43.0273 2.76868C43.2693 2.8248 43.4984 2.85974 43.7374 2.91973C43.9724 2.9787 44.1992 3.02449 44.4273 3.09085C45.0874 3.28277 45.7479 3.46056 46.3856 3.7155L46.8436 3.89454C47.3227 4.07432 47.9882 4.39985 48.4541 4.65983L49.0009 4.97366C49.4483 5.24052 49.8881 5.5265 50.3048 5.83849L51.7098 7.01473C51.8567 7.16287 51.9927 7.29699 52.1405 7.44424L52.9849 8.32045C53.1331 8.46817 53.2624 8.608 53.4246 8.74103C53.6876 8.95693 53.8159 8.88752 54.2062 8.75636C54.5895 8.62763 54.4575 8.64487 54.6904 8.38008L54.9067 8.16628C55.5856 7.5712 56.7374 7.19089 57.6161 7.19089C57.8556 7.19089 58.1146 7.18383 58.3475 7.21757C58.642 7.26023 58.9187 7.28742 59.2015 7.36254C59.3339 7.39771 59.4721 7.43228 59.6043 7.47636L60.3437 7.75276C60.5822 7.85525 60.7925 7.98448 61.0108 8.10133C61.3124 8.26289 61.8286 8.64049 62.0593 8.92855L62.5672 9.5733C62.6983 9.786 62.8292 9.99281 62.9351 10.2202C63.2718 10.9441 63.3783 11.4958 63.3549 12.2768C63.344 12.6422 63.2517 12.9891 63.1366 13.3306C63.0555 13.5713 62.9268 13.7834 62.7758 13.9844L62.5488 14.2563L61.6794 14.9187L61.0484 15.3032C60.8601 15.4158 60.9073 15.421 60.9073 15.6263C60.9073 16.4694 61.1983 17.1056 61.5177 17.8183C61.6223 18.0517 61.7852 18.3139 61.9168 18.537C62.3562 19.2829 62.8547 19.9889 63.2954 20.7362C63.4384 20.9787 63.5764 21.2051 63.6867 21.4627C63.8953 21.9502 64.0463 22.2658 64.2138 22.8099C64.6681 24.2871 64.5349 25.6787 63.0212 26.4272C62.6196 26.6256 62.1897 26.7906 61.7624 26.9417C61.5601 27.0132 61.3331 27.1117 61.1677 27.2421C61.0569 27.3295 61.0517 27.3745 61.0206 27.5421C60.9281 28.0415 61.0023 28.5869 61.0447 29.079C61.0717 29.3927 61.1319 29.7473 61.1487 30.0577C61.1526 30.13 61.1445 30.209 61.1485 30.2813C61.1528 30.3609 61.172 30.3895 61.1663 30.487C61.1477 30.8074 61.1206 31.2068 61.0582 31.4968C60.9092 32.1908 60.5737 32.8957 60.1185 33.4118C59.5454 34.0618 59.0419 34.4465 58.2764 34.8739C58.1723 34.9319 58.0857 34.9699 57.973 35.018C57.5476 35.1992 57.1279 35.3733 56.6682 35.4869C55.1588 35.8597 53.6141 35.8487 52.1805 35.2536C51.9807 35.1708 51.7992 35.0676 51.616 34.9575L51.0919 34.6209C50.7411 34.3876 50.3869 34.1597 49.9896 34.0019C49.8848 33.9601 49.7824 33.9147 49.672 33.889C49.1807 34.217 48.5793 35.0704 48.1782 35.5437C48.1362 35.5931 48.1062 35.6387 48.0643 35.6879C48.0393 35.7175 48.0216 35.7293 47.9964 35.7576C47.7695 36.0121 47.5509 36.2708 47.3066 36.513C47.2519 36.5675 47.2328 36.6054 47.1782 36.6598L46.3501 37.3977C46.1334 37.5865 45.833 37.8038 45.5872 37.9599C45.316 38.132 45.0458 38.3099 44.7551 38.4532L44.4165 38.6311C43.9294 38.8703 43.4083 39.0585 42.8934 39.2256C42.822 39.2488 42.7604 39.265 42.693 39.2836C42.0319 39.4661 41.3861 39.6058 40.6972 39.6818C40.397 39.7151 40.0598 39.7617 39.7285 39.7641C39.6294 39.7647 39.5987 39.7827 39.4883 39.7823C39.3962 39.782 39.3041 39.7822 39.212 39.7817C39.1012 39.7811 39.0631 39.7968 38.9715 39.7996C38.7055 39.8076 38.4541 39.7806 38.1953 39.7821C37.8932 39.7839 37.059 39.6925 36.7552 39.6372C36.6045 39.6098 36.4585 39.5846 36.3147 39.561C35.4608 39.4214 34.6423 39.1425 33.8378 38.8521C33.4605 38.7159 32.7448 38.3946 32.3916 38.1808C32.2803 38.1134 32.1531 38.0608 32.0469 37.992C31.5233 37.652 30.8176 37.2176 30.385 36.7797C30.3269 36.721 30.3024 36.7025 30.2393 36.6501C29.9617 36.4187 29.4616 35.817 29.2621 35.5111C29.036 35.1645 28.8712 34.871 28.6627 34.528C28.4857 34.2367 28.523 34.1306 28.1936 33.9306C28.131 33.8927 28.095 33.8681 28.0342 33.8319C27.7895 33.6869 27.8642 33.7045 27.5171 33.8773C27.287 33.9919 27.0796 34.1361 26.8672 34.2773C26.754 34.3525 26.6544 34.413 26.5431 34.487C25.8839 34.9254 25.1764 35.2865 24.4248 35.5362C24.2843 35.5829 24.1696 35.6246 24.0169 35.662C23.8794 35.6958 23.7472 35.742 23.5927 35.7718C23.4491 35.7995 23.297 35.8301 23.1658 35.8615C22.8605 35.9346 22.3276 35.9966 21.9967 36.0188L20.7395 36.0537C20.1154 36.0194 19.9425 36.0263 19.3042 35.9212C18.36 35.7659 17.7547 35.5553 16.8789 35.1609C16.4126 34.9508 15.9739 34.6611 15.5696 34.3531L14.6339 33.4477C14.47 33.2533 14.3377 33.0484 14.1946 32.8376C14.0539 32.6303 13.9284 32.3782 13.8364 32.1468C13.4933 31.2845 13.3875 30.3891 13.5532 29.4217L13.7067 28.7845C13.8956 28.1366 14.1777 27.5394 14.5259 26.9727C14.997 26.2058 15.7125 25.4444 16.4142 24.9037L16.5641 24.7783C16.6654 24.6929 16.7452 24.6098 16.8474 24.5283C17.0373 24.3773 17.2156 24.1891 17.3753 24.0065C17.5492 23.8075 17.6697 23.5892 17.7927 23.3574C17.0346 23.3574 16.1459 23.8228 15.5422 24.2234C14.7698 24.7361 14.1374 25.4357 13.583 26.1701C12.748 27.2763 12.1233 28.7906 12.1233 30.2639C12.1233 30.8335 12.2266 31.3358 12.3839 31.8254L12.6683 32.6585C12.8063 33.0713 12.9079 33.3664 12.9755 33.8125C13.043 34.2571 12.9151 34.7097 12.8371 35.0988C12.7539 35.5136 12.6845 35.9112 12.6155 36.3383C12.5794 36.5617 12.5477 36.7574 12.5168 36.9787C12.4131 37.7225 12.3076 38.508 12.2297 39.2522L12.1723 39.9338C12.1617 40.0337 12.1452 40.1706 12.1404 40.28C12.1366 40.3695 12.1216 40.5315 12.1108 40.6112L12.0543 41.4655C12.0511 41.5266 12.057 41.5935 12.0549 41.6551L12.0372 41.9982C12.0378 42.144 12.019 42.2167 12.0198 42.3589L12.0207 42.9094C12.0195 42.998 12.0067 43.004 12.0026 43.0804C11.9916 43.2818 12.0189 43.8529 12.0193 44.1463L12.1479 45.8735C12.2098 46.3191 12.2629 46.7139 12.3578 47.1246C12.5256 47.8512 12.7646 48.6173 13.2062 49.2166C13.359 49.424 13.7394 49.8402 14.0016 49.901C14.0237 49.8064 14.0958 49.728 14.1325 49.6364C14.5137 48.6866 14.1565 46.9763 14.0041 46.0503C13.7266 44.3639 13.4847 43.6919 13.4847 41.8435C13.4847 41.5284 13.4919 41.26 13.5013 40.9496L13.5583 40.0959C13.575 39.9736 13.5761 39.8238 13.5953 39.6861C13.6534 39.2722 13.6695 38.8903 13.7334 38.4322C13.7851 38.0617 14.1567 35.3924 14.1567 35.1776C14.2708 35.2041 14.372 35.2886 14.4728 35.3434L16.2242 36.2946C16.3922 36.3684 16.5589 36.462 16.7349 36.5242C16.8607 36.5685 16.9645 36.6145 17.084 36.6573C17.204 36.7003 17.3284 36.7388 17.4586 36.782C17.6317 36.8394 19.5995 37.4243 19.7744 37.4282C19.7744 37.5628 19.8074 37.7098 19.7891 37.8724C19.7746 38.0004 19.7879 38.1835 19.7697 38.3168C19.7537 38.4331 19.7461 38.6184 19.7396 38.7508C19.7133 39.2805 19.5946 40.3315 19.536 40.8843C19.4662 41.543 19.3522 42.828 19.3442 43.4763C19.343 43.5718 19.3268 43.5858 19.3257 43.6811C19.3117 44.8118 19.2833 45.7567 19.5116 46.8989C19.5794 47.2383 19.6661 47.5326 19.7963 47.8347L19.9928 48.2402C20.02 48.2896 20.0426 48.3178 20.0742 48.3652C20.2341 48.6041 20.4334 48.8246 20.6702 48.9907C20.7551 49.0501 21.1158 49.2482 21.2391 49.2482C21.3338 49.2482 21.3942 48.6438 21.3942 48.561C21.3942 48.026 21.36 47.5955 21.2736 47.0835C21.2129 46.7235 21.1486 46.3798 21.0795 46.0228C20.9563 45.3868 20.7566 44.4527 20.7566 43.8192L20.7737 42.187C20.7825 42.024 20.8101 41.834 20.8082 41.6717C20.8045 41.3418 20.8616 40.9879 20.8773 40.6582C20.8932 40.3256 20.9471 39.9797 20.9637 39.6448L21.1185 37.6C21.3789 37.4754 22.6732 37.1774 22.8774 37.1546C23.2046 37.1184 23.5526 37.1269 23.8724 37.0471C24.1579 36.9758 24.4291 36.8797 24.7134 36.786C25.4326 36.5495 26.3433 36.1212 27.061 35.828L27.638 35.5785C27.6932 35.5519 27.7743 35.5093 27.8389 35.5039C27.8562 35.5682 28.0048 35.7693 28.0526 35.8407C28.2942 36.2035 28.8215 36.9094 29.1442 37.2264C29.2032 37.2842 29.2216 37.3088 29.2743 37.3715C29.4661 37.6004 29.8782 37.9674 30.1268 38.1881L30.4287 38.4368C30.9617 38.8301 31.1407 38.9783 31.7431 39.3427C31.8073 39.3815 31.8577 39.4042 31.9197 39.4415C32.2195 39.6221 32.5362 39.751 32.8479 39.9078C32.9707 39.9697 33.1094 40.0197 33.2329 40.0737L33.6314 40.2261C35.6149 40.9643 37.7363 41.1907 39.9704 41.1907C40.3523 41.1907 40.6748 41.1735 41.056 41.1735C41.056 41.2826 40.8808 42.2328 40.8589 42.3685C40.7776 42.8714 40.7198 43.4023 40.6627 43.9082L40.6076 44.5405C40.6005 44.8386 40.5477 45.2681 40.5671 45.5455C40.5829 45.7729 40.5737 46.0108 40.5735 46.2417C40.5732 46.4541 40.5895 46.6853 40.6105 46.892C40.686 47.6346 40.8427 48.4207 41.2593 49.0455C41.525 49.4439 42.0177 49.8495 42.5724 49.8495C42.6396 49.8495 42.6227 49.7937 42.6254 49.7306C42.6336 49.553 42.6586 49.3835 42.6586 49.1966C42.6586 48.4638 42.5659 47.8139 42.4681 47.1189L42.2867 45.7706C42.2693 45.647 42.2567 45.5539 42.2436 45.4356C42.1914 44.9704 42.1386 44.4892 42.1249 44.0248L42.1072 43.6474C42.1072 43.0212 42.1822 42.3983 42.3419 41.923C42.4546 41.587 42.618 41.2246 42.8521 40.9713C42.9445 40.8714 43.0259 40.8289 43.1418 40.762C43.2412 40.7045 43.3538 40.6554 43.4626 40.6007L43.8058 40.4447C44.1423 40.3061 44.4778 40.1361 44.8123 39.9878C45.1427 39.8413 45.4915 39.6487 45.812 39.4898C46.2396 39.2778 46.6539 39.0224 47.0561 38.7716C47.2523 38.6492 47.4585 38.5082 47.6386 38.3731C47.9629 38.1299 48.2852 37.8699 48.5823 37.5959C48.7109 37.4772 48.8206 37.339 48.944 37.2177C49.0317 37.1316 49.0948 37.0436 49.1761 36.951L49.7721 36.0676C49.8303 35.9717 49.9048 35.8371 49.9304 35.7273C50.1244 35.7723 51.7488 36.4937 52.1385 36.6528C52.2494 36.6981 52.3638 36.7399 52.4636 36.7925C52.4476 36.861 52.4241 36.9173 52.401 36.9878C52.3754 37.0657 52.3621 37.1213 52.3364 37.1982C52.2444 37.4715 52.1704 37.7623 52.098 38.043C51.9074 38.7833 51.7454 39.5228 51.5948 40.273C51.4447 41.0211 51.0654 43.3123 51.0332 44.0596C51.0227 44.3045 50.9838 44.5643 50.9653 44.7995C50.9435 45.0777 50.8839 46.4683 50.8963 46.6188C50.9103 46.7861 50.9131 46.9604 50.9123 47.1526C50.9111 47.462 50.9628 47.8651 50.9974 48.1673C51.089 48.9657 51.2967 49.9306 51.925 50.4896C52.1675 50.7052 52.4708 50.7772 52.8082 50.7772C52.9039 50.7772 52.9104 50.7601 52.9978 50.7601C53.0148 50.5567 53.0839 50.4669 53.0839 50.1244C53.0839 49.188 52.9152 48.3547 52.8271 47.4427L52.7382 46.4317C52.7112 46.0789 52.6858 45.7415 52.6877 45.3653C52.6883 45.2265 52.6696 45.1609 52.6703 45.022C52.6718 44.7025 52.6437 44.1517 52.6829 43.8661L52.7049 43.3555C52.7235 43.0123 52.7282 42.6658 52.769 42.3542L52.8649 41.4018C52.9425 40.7841 53.0335 40.1732 53.1429 39.5658C53.1994 39.2529 53.2569 38.9801 53.318 38.6751C53.3579 38.4766 53.6388 37.119 53.7216 36.9471C54.0145 36.9471 54.3074 36.9465 54.6004 36.9471C54.8007 36.9474 55.2419 36.9316 55.4348 36.9029L55.8289 36.8663C56.7905 36.7445 57.7403 36.5401 58.5925 36.0825C58.8783 35.929 59.1605 35.7616 59.4206 35.568L60.1363 34.9757C60.214 34.8979 60.2992 34.845 60.3659 34.758C60.4972 34.587 60.6617 34.4771 60.7989 34.3134C60.8427 34.2612 60.8524 34.2432 60.9029 34.1939C61.259 33.8463 61.711 33.1747 61.8947 32.7432C62.3227 31.7378 62.1464 30.5106 62.0304 29.4706C61.9944 29.1465 61.924 28.7316 61.924 28.4256C62.0298 28.4256 62.2549 28.3786 62.3564 28.3586C62.9171 28.2481 63.4922 28.0902 63.9883 27.8209L64.5574 27.4777C64.6597 27.4088 64.7448 27.3245 64.8436 27.2476C64.9875 27.1356 65.1005 26.9995 65.2195 26.8664C65.5137 26.5374 65.7215 26.1176 65.8597 25.7007C66.238 24.5594 66.0222 23.2583 65.6828 22.1528C65.4297 21.3282 64.9367 20.3057 64.4781 19.5741C64.4505 19.5301 64.4304 19.5077 64.3981 19.465L63.47 18.2255C63.1878 17.8506 62.8345 17.3353 62.5392 16.9888C62.2922 16.6988 62.4462 16.9038 62.2514 16.537L62.6006 16.2322C62.7875 16.0506 62.9992 15.8952 63.2017 15.7318L63.5479 15.4243C63.7432 15.2439 63.9315 15.0661 64.0929 14.851C64.3387 14.5235 64.5602 14.1195 64.6848 13.6714L64.7741 13.3311C64.8068 13.203 64.8228 13.0944 64.8461 12.9561C65.325 10.1151 63.6113 7.62251 61.189 6.46327C60.9274 6.33808 60.6559 6.22736 60.3732 6.14289C59.4222 5.85851 59.3019 5.89066 58.3899 5.81678L57.8573 5.85077C57.6741 5.8714 57.5242 5.89883 57.3502 5.92947C57.0327 5.98515 56.749 6.08493 56.4588 6.19178C56.3113 6.24613 56.1984 6.2957 56.0593 6.36046C55.6656 6.54381 55.3016 6.75214 54.9223 6.96195L54.3707 7.27109C54.3143 7.30136 54.2281 7.3491 54.1695 7.36263C54.1305 7.28893 54.0878 7.23802 54.0386 7.16676L53.7363 6.7809C53.5154 6.5089 53.1721 6.11732 52.9248 5.88925L52.3903 5.40841C52.2241 5.25056 52.0068 5.07974 51.8236 4.9427C51.689 4.84208 51.5673 4.74472 51.4324 4.64543C50.6306 4.05581 49.7584 3.55732 48.8678 3.11341C48.2466 2.80371 47.606 2.53345 46.9566 2.28719C46.7903 2.22417 46.6285 2.16173 46.4647 2.10765C46.288 2.04933 46.1311 1.98607 45.9521 1.93146C44.386 1.45356 43.1014 1.14638 41.4646 0.942175C41.0478 0.890173 40.65 0.855947 40.2116 0.834131L39.8889 0.812262C39.7224 0.789556 39.0742 0.782588 38.8847 0.782588C38.6258 0.782588 38.4197 0.801004 38.1607 0.799491L37.4398 0.836665C37.2258 0.859816 36.9836 0.878332 36.7652 0.90279C36.5388 0.928227 36.3221 0.96524 36.0944 0.989964C35.4543 1.05963 34.2276 1.37675 33.67 1.5622C33.2968 1.68621 32.9436 1.8268 32.5851 1.9753L32.0838 2.21423C31.9159 2.30434 31.7634 2.39505 31.6094 2.49728C31.305 2.69902 31.0335 2.9119 30.7552 3.14024L30.3307 3.45584C30.208 3.53669 29.9934 3.70076 29.8551 3.7376C29.8409 3.68468 29.7938 3.62098 29.762 3.57278C29.7244 3.51591 29.6977 3.46727 29.6646 3.41218L29.0679 2.40927C28.9978 2.29247 28.9394 2.20758 28.8658 2.09545L28.6463 1.78169C28.6065 1.72785 28.5816 1.68694 28.5382 1.63167L28.2921 1.34444C28.0942 1.10886 27.8535 0.889525 27.5942 0.717462C27.124 0.40557 26.6711 0.191268 26.0887 0.0881255C25.6398 0.00860894 25.179 -0.0155626 24.7026 0.00942911C24.0918 0.041396 23.4609 0.191499 22.8761 0.335899C22.6537 0.390751 22.4168 0.466741 22.2115 0.549434C21.7581 0.732182 21.4913 0.859213 21.0436 1.10313C20.7658 1.25448 20.5107 1.42596 20.2596 1.6099C20.0905 1.73367 19.9186 1.84992 19.7615 1.98966L19.0807 2.59942C18.9282 2.75145 18.806 2.87883 18.6664 3.04535L18.5188 3.20738C18.0098 3.8363 17.6148 4.36711 17.247 5.1006C17.1943 5.20579 17.1586 5.2821 17.1093 5.39272C17.0796 5.45912 16.9878 5.65357 16.9828 5.71338Z" fill="white"/>
<path fill-rule="evenodd" clip-rule="evenodd" d="M0.0511322 17.8568C0.0511322 19.071 0.53777 20.0132 1.48139 20.6399C1.90818 20.9235 2.37841 21.1413 2.93864 21.3003C3.21585 21.379 3.49116 21.4499 3.79035 21.4991C4.3418 21.5898 4.91736 21.6566 5.47944 21.6534L5.99686 21.6715C6.09645 21.6703 6.12673 21.6528 6.23704 21.6533C6.32347 21.6536 6.40987 21.6536 6.4963 21.6539L7.73169 21.5626C8.33807 21.4872 8.97616 21.4046 9.57328 21.2855C9.88301 21.2237 10.1516 21.1617 10.452 21.0965C11.1208 20.9514 11.8454 20.7343 12.4754 20.4853C12.8528 20.336 13.2463 20.2033 13.6176 20.0433C13.7442 19.9888 13.8531 19.9425 13.9794 19.8887C14.1097 19.8331 14.2202 19.7795 14.3488 19.7243C14.6075 19.6133 14.8256 19.5027 15.0718 19.38C15.8841 18.975 16.6623 18.5348 17.3841 17.9917L18.5369 17.0279C18.7221 16.8653 18.8879 16.6769 19.0624 16.5036L19.7917 15.6331C20.0204 15.3287 20.2293 15.0132 20.4269 14.6858C20.6301 14.3488 20.8 14.0028 20.9767 13.6533C21.0946 13.4201 21.1977 13.0981 21.2982 12.9087C21.5541 12.9681 22.1238 13.4024 22.3366 13.5914L22.6121 13.8323C22.8191 14.0254 23.0573 14.2136 23.2872 14.379L23.4897 14.5206C24.0818 14.9095 24.8363 15.0047 25.5616 14.8227C25.6523 14.7999 25.8205 14.7684 25.868 14.7158C25.8821 14.7002 25.8949 14.6792 25.9126 14.6573L26.044 14.479C26.3313 14.0468 26.5023 13.6662 26.5023 13.1149C26.5023 12.7965 26.3943 12.5704 26.2843 12.3529C26.23 12.2455 26.1599 12.1612 26.0866 12.069C25.6174 11.4799 24.545 10.9156 23.7972 10.8982C22.8183 10.8756 22.435 11.0396 21.5578 11.1059C21.0214 11.1465 21.1249 11.2369 20.8355 10.8789C20.7928 10.8261 20.7626 10.7999 20.7173 10.7392C20.6766 10.6847 20.6476 10.6447 20.6051 10.5933L20.2644 10.1598C20.2203 10.1028 20.1852 10.0754 20.1364 10.0124C20.0301 9.87529 19.8783 9.74082 19.7434 9.63127C19.4907 9.42608 19.253 9.25091 18.949 9.10039C17.7493 8.5062 16.3395 8.40745 14.9569 8.40745C14.8183 8.40745 14.7068 8.40952 14.5925 8.42216L14.2334 8.44218C13.691 8.45506 12.7012 8.61424 12.227 8.70949C11.3847 8.87885 10.604 9.06127 9.79777 9.32855C9.41251 9.45627 9.04014 9.57366 8.67227 9.71821L8.12555 9.92921C7.58753 10.1431 7.05222 10.3717 6.5359 10.6293C6.32228 10.7358 5.98352 10.8963 5.78604 11.0155C5.30685 11.3049 4.81751 11.5617 4.35225 11.871C3.99188 12.1105 3.33554 12.5622 3.02826 12.8359C2.85888 12.9868 2.6798 13.115 2.51926 13.2734C2.48365 13.3085 2.46052 13.3327 2.42482 13.3683L2.02843 13.7462C1.95713 13.8169 1.9177 13.8751 1.84765 13.9439C1.53724 14.2488 1.24803 14.6405 1.00919 14.9978C0.691517 15.4728 0.426685 15.9797 0.255611 16.5315C0.141849 16.8985 0.0511322 17.375 0.0511322 17.8568Z" fill="white"/>
<path d="M37.85 29.1999C36.6167 29.1999 35.4167 29.0082 34.25 28.6249C33.1 28.2416 32.1583 27.7249 31.425 27.0749L32.575 25.0999C33.1583 25.6499 33.9167 26.0999 34.85 26.4499C35.7833 26.7999 36.775 26.9749 37.825 26.9749C39.1583 26.9749 40.1833 26.6916 40.9 26.1249C41.6167 25.5582 41.975 24.7999 41.975 23.8499C41.975 23.1999 41.8167 22.6332 41.5 22.1499C41.1833 21.6666 40.6333 21.2999 39.85 21.0499C39.0833 20.7832 38.025 20.6499 36.675 20.6499H32.7L33.625 11.4999H43.5V13.6749H34.55L35.85 12.4499L35.125 19.6749L33.825 18.4749H37.2C38.95 18.4749 40.3583 18.6999 41.425 19.1499C42.4917 19.5999 43.2667 20.2249 43.75 21.0249C44.2333 21.8082 44.475 22.7166 44.475 23.7499C44.475 24.7499 44.2333 25.6666 43.75 26.4999C43.2667 27.3166 42.5333 27.9749 41.55 28.4749C40.5833 28.9582 39.35 29.1999 37.85 29.1999Z" fill="#F2D8CA"/>
<path d="M48.2055 29.1499C47.7388 29.1499 47.3388 28.9916 47.0055 28.6749C46.6721 28.3416 46.5055 27.9249 46.5055 27.4249C46.5055 26.9249 46.6721 26.5166 47.0055 26.1999C47.3388 25.8832 47.7388 25.7249 48.2055 25.7249C48.6555 25.7249 49.0388 25.8832 49.3555 26.1999C49.6888 26.5166 49.8555 26.9249 49.8555 27.4249C49.8555 27.9249 49.6888 28.3416 49.3555 28.6749C49.0388 28.9916 48.6555 29.1499 48.2055 29.1499Z" fill="#F2D8CA"/>
</svg>
